<?xml version="1.0" ?><!DOCTYPE svg  PUBLIC '-//W3C//DTD SVG 1.1//EN'  'http://www.w3.org/Graphics/SVG/1.1/DTD/svg11.dtd'><svg height="6.82666in" style="shape-rendering:geometricPrecision; text-rendering:geometricPrecision; image-rendering:optimizeQuality; fill-rule:evenodd; clip-rule:evenodd" viewBox="0 0 6.82666 6.82666" width="6.82666in" xml:space="preserve" xmlns="http://www.w3.org/2000/svg" xmlns:xlink="http://www.w3.org/1999/xlink"><defs><style type="text/css">
   <![CDATA[
    .str0 {stroke:#373435;stroke-width:0.00694488;stroke-linecap:round;stroke-linejoin:round}
    .fil4 {fill:none}
    .fil0 {fill:#9CCC65}
    .fil2 {fill:#C3AE7E}
    .fil3 {fill:#EDEAE3}
    .fil1 {fill:black;fill-rule:nonzero}
   ]]>
  </style></defs><g id="Layer_x0020_1"><path class="fil0 str0" d="M4.02899 5.78583l0.29122 0 -3.93701e-006 -1.53531c0,-0.00794882 -3.14961e-005,-0.014622 -0.000145669,-0.020378l-1.81317 0c-0.000161417,0.00598425 -0.000224409,0.0128937 -0.000224409,0.0210157l0 1.53467 0.291012 0 0 0.0533307c0,0.0294528 0.0238819,0.0533346 0.0533346,0.0533346l1.12465 0c0.0294528,0 0.0533346,-0.0238819 0.0533346,-0.0533346l0 -0.0533307zm-0.615657 -1.40264c0.137299,0.0650945 0.241327,0.12502 0.321941,0.199106 0.0809409,0.0743898 0.139626,0.164839 0.187047,0.292217l0 0.911311 -1.01798 0 0 -0.911311c0.0474213,-0.127378 0.106106,-0.217827 0.187047,-0.292217 0.0806102,-0.0740866 0.184642,-0.134012 0.321941,-0.199106z"/><g id="_407700424"><path class="fil1" d="M4.58667 3.43701l1.33333 0c0.0294528,0 0.0533346,0.0238819 0.0533346,0.0533346l0 2.34883c0,0.0294528 -0.0238819,0.0533346 -0.0533346,0.0533346l-1.33333 0c-0.0294528,0 -0.0533346,-0.0238819 -0.0533346,-0.0533346l0 -2.34883c0,-0.0294528 0.0238819,-0.0533346 0.0533346,-0.0533346zm1.28 0.106669l-1.22667 0 0 2.24216 1.22667 0 0 -2.24216z" id="_407702296"/><path class="fil1" d="M0.906665 3.43701l1.33333 0c0.0294528,0 0.0533346,0.0238819 0.0533346,0.0533346l0 2.34883c0,0.0294528 -0.0238819,0.0533346 -0.0533346,0.0533346l-1.33333 0c-0.0294528,0 -0.0533346,-0.0238819 -0.0533346,-0.0533346l0 -2.34883c0,-0.0294528 0.0238819,-0.0533346 0.0533346,-0.0533346zm1.28 0.106669l-1.22666 0 0 2.24216 1.22666 0 0 -2.24216z" id="_407702224"/><path class="fil1" d="M2.24 3.11917l2.34667 0c0.0294528,0 0.0533346,0.0238819 0.0533346,0.0533346l0 2.66667c0,0.0294528 -0.0238819,0.0533346 -0.0533346,0.0533346l-2.34667 0c-0.0294528,0 -0.0533346,-0.0238819 -0.0533346,-0.0533346l0 -2.66667c0,-0.0294528 0.0238819,-0.0533346 0.0533346,-0.0533346zm2.29333 0.106669l-2.24 0 0 2.56 2.24 0 0 -2.56z" id="_407702152"/><path class="fil1" d="M2.50753 3.19813c0.0141496,0.0257717 0.0465197,0.035189 0.0722913,0.0210394 0.0257717,-0.0141496 0.035189,-0.0465197 0.0210394,-0.0722913 -0.014815,-0.0268701 -0.0262835,-0.0567362 -0.0340787,-0.0899134 -0.00797244,-0.0339291 -0.012126,-0.0715787 -0.012126,-0.113311 0,-0.259732 0.134087,-0.342295 0.394874,-0.502858 0.126744,-0.0780354 0.281386,-0.173248 0.463799,-0.31276 0.182409,0.139504 0.337051,0.234724 0.463799,0.31276 0.260787,0.160563 0.394874,0.243126 0.394874,0.502858 0,0.0417323 -0.00415354,0.0793819 -0.012126,0.113311 -0.00779528,0.0331772 -0.0192638,0.0630433 -0.0340787,0.0899134 -0.0141496,0.0257717 -0.00473228,0.0581417 0.0210394,0.0722913 0.0257717,0.0141496 0.0581417,0.00473228 0.0722913,-0.0210394 0.0194528,-0.0352795 0.0344291,-0.0741496 0.0444961,-0.117 0.0098937,-0.0421024 0.0150472,-0.0878071 0.0150472,-0.137476 0,-0.318854 -0.15135,-0.412039 -0.445709,-0.593276 -0.131213,-0.0807874 -0.292827,-0.180295 -0.483232,-0.328476 -0.0104331,-0.00969291 -0.0244528,-0.0148937 -0.0387874,-0.0142362l-0.000318898 1.9685e-005 -0.00088189 5.11811e-005c-0.0103031,0.000673228 -0.0205236,0.00433071 -0.0292795,0.0111614l0.0327992 0.0420551 -0.0327087 -0.041874c-0.191988,0.149748 -0.354815,0.25 -0.486858,0.331299 -0.294358,0.181236 -0.445709,0.274421 -0.445709,0.593276 0,0.0496693 0.00515354,0.095374 0.0150472,0.137476 0.0100669,0.0428504 0.0250433,0.0817205 0.0444961,0.117z" id="_407702080"/><g><path class="fil1" d="M3.46667 1.68833c0,-0.0294528 -0.0238819,-0.0533346 -0.0533346,-0.0533346 -0.0294528,0 -0.0533346,0.0238819 -0.0533346,0.0533346l0 0.372618c0,0.0294528 0.0238819,0.0533346 0.0533346,0.0533346 0.0294528,0 0.0533346,-0.0238819 0.0533346,-0.0533346l0 -0.372618z" id="_407702008"/><path class="fil1" d="M3.31055 1.88463c-0.0294528,0 -0.0533346,0.0238819 -0.0533346,0.0533346 0,0.0294528 0.0238819,0.0533346 0.0533346,0.0533346l0.205555 0c0.0294528,0 0.0533346,-0.0238819 0.0533346,-0.0533346 0,-0.0294528 -0.0238819,-0.0533346 -0.0533346,-0.0533346l-0.205555 0z" id="_407701936"/><path class="fil1" d="M3.34073 1.78534c-0.0294528,0 -0.0533346,0.0238819 -0.0533346,0.0533346 0,0.0294528 0.0238819,0.0533346 0.0533346,0.0533346l0.145197 0c0.0294528,0 0.0533346,-0.0238819 0.0533346,-0.0533346 0,-0.0294528 -0.0238819,-0.0533346 -0.0533346,-0.0533346l-0.145197 0z" id="_407701840"/><path class="fil1" d="M3.36265 1.68028c-0.0294528,0 -0.0533346,0.0238819 -0.0533346,0.0533346 0,0.0294528 0.0238819,0.0533346 0.0533346,0.0533346l0.10137 0c0.0294528,0 0.0533346,-0.0238819 0.0533346,-0.0533346 0,-0.0294528 -0.0238819,-0.0533346 -0.0533346,-0.0533346l-0.10137 0z" id="_407701792"/></g><g><g><path class="fil1" d="M1.41646 0.981492l0.180602 1.05789 7.08661e-005 -1.1811e-005c0.00495669,0.0290315 -0.014563,0.0565906 -0.0435945,0.0615472 -0.00324016,0.000555118 -0.00645669,0.000799213 -0.00963386,0.00076378l-0.36185 0c-0.0294528,0 -0.0533346,-0.0238819 -0.0533346,-0.0533346 0,-0.00411417 0.000468504,-0.00811417 0.00135039,-0.0119646l0.180886 -1.05784 0.0525 0.00895669 -0.0525709 -0.00898819c0.00496063,-0.0290315 0.0325276,-0.0485433 0.0615591,-0.0435827 0.0239528,0.00409055 0.0414173,0.0235709 0.0440157,0.0465669zm0.0649685 1.01352l-0.118016 -0.691283 -0.118205 0.691283 0.23622 0zm0.121878 0.243909l0 0.472177c0,0.0294528 -0.0238819,0.0533346 -0.0533346,0.0533346l-0.373335 0c-0.0294528,0 -0.0533346,-0.0238819 -0.0533346,-0.0533346l0 -0.472177c0,-0.0294528 0.0238819,-0.0533346 0.0533346,-0.0533346l0.373335 0c0.0294528,0 0.0533346,0.0238819 0.0533346,0.0533346zm-0.106669 0.418843l0 -0.365508 -0.266665 0 0 0.365508 0.266665 0zm0.106669 0.243913l0 0.588669c0,0.0294528 -0.0238819,0.0533346 -0.0533346,0.0533346l-0.373335 0c-0.0294528,0 -0.0533346,-0.0238819 -0.0533346,-0.0533346l0 -0.588669c0,-0.0294528 0.0238819,-0.0533346 0.0533346,-0.0533346l0.373335 0c0.0294528,0 0.0533346,0.0238819 0.0533346,0.0533346zm-0.106669 0.535335l0 -0.482 -0.266665 0 0 0.482 0.266665 0z" id="_407701672"/><g><path class="fil1" d="M1.01188 1.99501l0.70285 0 0.0749921 0 -0.0247835 0.0708346 -0.0666693 0.190575 -0.0125354 0.0358346 -0.0376732 0 -0.569512 0 -0.0376693 0 -0.0125394 -0.0358346 -0.0666693 -0.190575 -0.0247795 -0.0708346 0.0749882 0zm0.627862 0.106669l-0.552874 0 0.0293543 0.0839055 0.494165 0 0.0293543 -0.0839055z" id="_407701552"/><path class="fil1" d="M1.01188 2.65776l0.70285 0 0.0749921 0 -0.0247835 0.0708346 -0.0666693 0.190579 -0.0125354 0.0358346 -0.0376732 0 -0.569512 0 -0.0376693 0 -0.0125394 -0.0358346 -0.0666693 -0.190579 -0.0247795 -0.0708346 0.0749882 0zm0.627862 0.106669l-0.552874 0 0.0293543 0.0839094 0.494165 0 0.0293543 -0.0839094z" id="_407701576"/></g></g><g><path class="fil1" d="M5.46324 1.30372l-0.118016 0.691283 0.23622 0 -0.118205 -0.691283zm-0.23365 0.735654l0.180602 -1.05789c0.00259843,-0.0229961 0.020063,-0.0424764 0.0440157,-0.0465669 0.0290315,-0.00496063 0.0565984,0.0145512 0.0615591,0.0435827l-0.0525709 0.00898819 0.0525 -0.00895669 0.180886 1.05784c0.00088189,0.00385039 0.00135039,0.00785039 0.00135039,0.0119646 0,0.0294528 -0.0238819,0.0533346 -0.0533346,0.0533346l-0.36185 0c-0.00317717,3.54331e-005 -0.0063937,-0.000208661 -0.00963386,-0.00076378 -0.0290315,-0.00495669 -0.0485512,-0.0325157 -0.0435945,-0.0615472l7.08661e-005 1.1811e-005zm0.100425 0.252874l0 0.365508 0.266665 0 0 -0.365508 -0.266665 0zm-0.106669 0.418843l0 -0.472177c0,-0.0294528 0.0238819,-0.0533346 0.0533346,-0.0533346l0.373335 0c0.0294528,0 0.0533346,0.0238819 0.0533346,0.0533346l0 0.472177c0,0.0294528 -0.0238819,0.0533346 -0.0533346,0.0533346l-0.373335 0c-0.0294528,0 -0.0533346,-0.0238819 -0.0533346,-0.0533346zm0.106669 0.243913l0 0.482 0.266665 0 0 -0.482 -0.266665 0zm-0.106669 0.535335l0 -0.588669c0,-0.0294528 0.0238819,-0.0533346 0.0533346,-0.0533346l0.373335 0c0.0294528,0 0.0533346,0.0238819 0.0533346,0.0533346l0 0.588669c0,0.0294528 -0.0238819,0.0533346 -0.0533346,0.0533346l-0.373335 0c-0.0294528,0 -0.0533346,-0.0238819 -0.0533346,-0.0533346z" id="_407701360"/><g><path class="fil1" d="M5.73979 2.10168l-0.552874 0 0.0293543 0.0839055 0.494165 0 0.0293543 -0.0839055zm-0.627862 -0.106669l0.70285 0 0.0749882 0 -0.0247795 0.0708346 -0.0666693 0.190575 -0.0125394 0.0358346 -0.0376693 0 -0.569512 0 -0.0376732 0 -0.0125354 -0.0358346 -0.0666693 -0.190575 -0.0247835 -0.0708346 0.0749921 0z" id="_407701240"/><path class="fil1" d="M5.73979 2.76443l-0.552874 0 0.0293543 0.0839094 0.494165 0 0.0293543 -0.0839094zm-0.627862 -0.106669l0.70285 0 0.0749882 0 -0.0247795 0.0708346 -0.0666693 0.190579 -0.0125394 0.0358346 -0.0376693 0 -0.569512 0 -0.0376732 0 -0.0125354 -0.0358346 -0.0666693 -0.190579 -0.0247835 -0.0708346 0.0749921 0z" id="_407701264"/></g></g></g><path class="fil1" d="M3.41231 3.2323l0.00100787 0 0.00191339 0c0.00924409,0 0.017937,0.00235039 0.0255157,0.00648819 0.251476,0.116071 0.443996,0.222618 0.597193,0.355559 0.155984,0.135354 0.269524,0.296181 0.360098,0.518878 0.00883858,0.0217323 0.0039685,0.00999606 0.00618504,0.0153661 0.020626,0.0499882 0.0222402,0.0539134 0.0222362,0.121933l3.93701e-006 1.58864 0.000204724 0c0,0.0294528 -0.023878,0.0533307 -0.0533307,0.0533307l0 3.93701e-006 -1.92001 0c-0.0294528,0 -0.0533346,-0.0238819 -0.0533346,-0.0533346l0 -1.588c0,-0.0319134 0.0011063,-0.0509724 0.00527953,-0.0706339 0.00408661,-0.0192638 0.0102913,-0.034685 0.0208071,-0.060811 0.0905866,-0.225028 0.204091,-0.387138 0.360256,-0.523268 0.154358,-0.134547 0.348539,-0.241941 0.602807,-0.35915l0.0222913 0.0483346 -0.0223268 -0.0484331c0.00752362,-0.0034685 0.015437,-0.00503543 0.0232008,-0.00490157zm0.556047 0.442465c-0.140744,-0.122134 -0.32039,-0.222272 -0.555024,-0.331354 -0.235835,0.109638 -0.416075,0.210205 -0.556996,0.333039 -0.143142,0.124776 -0.247571,0.274343 -0.331508,0.48285 -0.00824409,0.0204921 -0.0131142,0.0325827 -0.0153898,0.043315 -0.00219291,0.0103346 -0.00277559,0.023811 -0.00277559,0.0485472l0 1.53467 1.81355 0 -3.93701e-006 -1.53531c0,-0.0468071 -0.00103937,-0.0493386 -0.014315,-0.0815157 -0.00606693,-0.0146811 -0.00245669,-0.00559055 -0.00660236,-0.0157835 -0.0839449,-0.206394 -0.188272,-0.354665 -0.330933,-0.478461z" id="_407701000"/><path class="fil1" d="M2.45631 4.12348c-0.0294528,0 -0.0533346,0.0238819 -0.0533346,0.0533346 0,0.0294528 0.0238819,0.0533346 0.0533346,0.0533346l1.91702 0c0.0294528,0 0.0533346,-0.0238819 0.0533346,-0.0533346 0,-0.0294528 -0.0238819,-0.0533346 -0.0533346,-0.0533346l-1.91702 0z" id="_407700928"/><path class="fil1" d="M3.41301 4.27168l0.000314961 0 0.00111811 0c0.00978346,0 0.0189488,0.00263386 0.0268346,0.00723622 0.155492,0.0727795 0.273043,0.139563 0.366075,0.225059 0.0957717,0.0880236 0.164055,0.193984 0.218291,0.343319l0.000141732 -5.11811e-005c0.00229134,0.00631496 0.00331496,0.0127874 0.00320472,0.019126l0 0.972799c0,0.0294528 -0.0238819,0.0533346 -0.0533346,0.0533346l-1.12465 0c-0.0294528,0 -0.0533346,-0.0238819 -0.0533346,-0.0533346l0 -0.97372c0,-0.00790945 0.00172047,-0.0154134 0.00481102,-0.0221654 0.0540039,-0.14722 0.121913,-0.252075 0.216827,-0.339307 0.0938937,-0.0862913 0.21276,-0.15352 0.370409,-0.227087l0.0225 0.048126 -0.0225512 -0.0483307c0.00755906,-0.00352756 0.0155236,-0.00512598 0.0233386,-0.00500394zm0.322264 0.310626c-0.0806142,-0.0740866 -0.184642,-0.134012 -0.321941,-0.199106 -0.137299,0.0650945 -0.241331,0.12502 -0.321941,0.199106 -0.0809409,0.0743898 -0.139626,0.164839 -0.187047,0.292217l0 0.911311 1.01798 0 0 -0.911311c-0.0474213,-0.127378 -0.106106,-0.217827 -0.187047,-0.292217z" id="_407700856"/><g><path class="fil1" d="M1.33073 3.88882l0.485201 0c0.0294528,0 0.0533346,0.0238819 0.0533346,0.0533346l0 0.485197c0,0.0294528 -0.0238819,0.0533346 -0.0533346,0.0533346l-0.485201 0c-0.0294528,0 -0.0533346,-0.0238819 -0.0533346,-0.0533346l0 -0.485197c0,-0.0294528 0.0238819,-0.0533346 0.0533346,-0.0533346zm0.431866 0.106669l-0.378531 0 0 0.378528 0.378531 0 0 -0.378528z" id="_407700760"/><path class="fil1" d="M1.33073 4.84882l0.485201 0c0.0294528,0 0.0533346,0.0238819 0.0533346,0.0533346l0 0.485197c0,0.0294528 -0.0238819,0.0533346 -0.0533346,0.0533346l-0.485201 0c-0.0294528,0 -0.0533346,-0.0238819 -0.0533346,-0.0533346l0 -0.485197c0,-0.0294528 0.0238819,-0.0533346 0.0533346,-0.0533346zm0.431866 0.106669l-0.378531 0 0 0.378528 0.378531 0 0 -0.378528z" id="_407700712"/></g><g><path class="fil1" d="M5.01073 3.88882l0.485201 0c0.0294528,0 0.0533346,0.0238819 0.0533346,0.0533346l0 0.485197c0,0.0294528 -0.0238819,0.0533346 -0.0533346,0.0533346l-0.485201 0c-0.0294528,0 -0.0533346,-0.0238819 -0.0533346,-0.0533346l0 -0.485197c0,-0.0294528 0.0238819,-0.0533346 0.0533346,-0.0533346zm0.431866 0.106669l-0.378531 0 0 0.378528 0.378531 0 0 -0.378528z" id="_407700544"/><path class="fil1" d="M5.01073 4.84882l0.485201 0c0.0294528,0 0.0533346,0.0238819 0.0533346,0.0533346l0 0.485197c0,0.0294528 -0.0238819,0.0533346 -0.0533346,0.0533346l-0.485201 0c-0.0294528,0 -0.0533346,-0.0238819 -0.0533346,-0.0533346l0 -0.485197c0,-0.0294528 0.0238819,-0.0533346 0.0533346,-0.0533346zm0.431866 0.106669l-0.378531 0 0 0.378528 0.378531 0 0 -0.378528z" id="_407700568"/></g></g><path class="fil0 str0" d="M2.58725 3.11917l1.65217 0c0.00839764,-0.0193189 0.015252,-0.0400197 0.0204646,-0.0622047 0.00797244,-0.0339291 0.012126,-0.0715787 0.012126,-0.113311 0,-0.259732 -0.134087,-0.342295 -0.394874,-0.502858 -0.126748,-0.0780354 -0.28139,-0.173256 -0.463799,-0.31276 -0.182413,0.139512 -0.337055,0.234724 -0.463799,0.31276 -0.260787,0.160563 -0.394874,0.243126 -0.394874,0.502858 0,0.0417323 0.00415354,0.0793819 0.012126,0.113311 0.0052126,0.022185 0.0120669,0.0428858 0.0204646,0.0622047z"/><polygon class="fil0 str0" points="5.46324,1.30372 5.34523,1.99501 5.58145,1.99501 "/><polygon class="fil0 str0" points="1.48143,1.99501 1.36341,1.30372 1.24521,1.99501 "/><path class="fil2 str0" d="M4.03794 3.59435c0.155984,0.135354 0.269524,0.296181 0.360098,0.518878 0.00883858,0.0217323 0.0039685,0.00999606 0.00618504,0.0153661 0.000992126,0.00240551 0.00194094,0.00470472 0.00284646,0.00690945 0.0119646,0.00977953 0.0196024,0.0246535 0.0196024,0.041311 0,0.00525591 -0.000759843,0.0103346 -0.00217717,0.0151339 0.00170079,0.0138701 0.00196457,0.0309291 0.00196457,0.0585787l3.93701e-006 1.53531 0.10687 0 0 -2.29549 0 -0.264504 -2.24 0 -3.93701e-006 0.264504 3.93701e-006 2.29549 0.106657 0 0 -1.53467c0,-0.0283268 0.000870079,-0.0465276 0.00398425,-0.0640118 -0.00065748,-0.00334646 -0.001,-0.00680315 -0.001,-0.0103386 0,-0.0145197 0.00580315,-0.027685 0.0152165,-0.0373031 0.00232283,-0.0059685 0.00493307,-0.0124567 0.00788583,-0.0197913 0.0905866,-0.225028 0.204091,-0.387138 0.360256,-0.523268 0.154358,-0.134547 0.348539,-0.241941 0.602807,-0.35915l-3.54331e-005 -9.84252e-005c0.00752362,-0.0034685 0.015437,-0.00503543 0.0232008,-0.00490157l0.00100787 0 0.00191339 0c0.00924409,0 0.017937,0.00235039 0.0255157,0.00648819 0.251476,0.116071 0.443996,0.222618 0.597193,0.355559z"/><path class="fil2 str0" d="M4.64 3.54368l0 2.24216 1.22667 0 0 -2.24216 -0.216646 0 -0.373335 0 -0.636685 0zm0.370732 1.30514l0.485201 0c0.0294528,0 0.0533346,0.0238819 0.0533346,0.0533346l0 0.485197c0,0.0294528 -0.0238819,0.0533346 -0.0533346,0.0533346l-0.485201 0c-0.0294528,0 -0.0533346,-0.0238819 -0.0533346,-0.0533346l0 -0.485197c0,-0.0294528 0.0238819,-0.0533346 0.0533346,-0.0533346zm-0.0533346 -0.421465l0 -0.485197c0,-0.0294528 0.0238819,-0.0533346 0.0533346,-0.0533346l0.485201 0c0.0294528,0 0.0533346,0.0238819 0.0533346,0.0533346l0 0.485197c0,0.0294528 -0.0238819,0.0533346 -0.0533346,0.0533346l-0.485201 0c-0.0294528,0 -0.0533346,-0.0238819 -0.0533346,-0.0533346z"/><path class="fil2 str0" d="M2.18666 5.78583l0 -2.24216 -0.636689 0 -0.373335 0 -0.216638 0 0 2.24216 1.22666 0zm-0.855933 -0.937016l0.485201 0c0.0294528,0 0.0533346,0.0238819 0.0533346,0.0533346l0 0.485197c0,0.0294528 -0.0238819,0.0533346 -0.0533346,0.0533346l-0.485201 0c-0.0294528,0 -0.0533346,-0.0238819 -0.0533346,-0.0533346l0 -0.485197c0,-0.0294528 0.0238819,-0.0533346 0.0533346,-0.0533346zm0.538535 -0.906661l0 0.485197c0,0.0294528 -0.0238819,0.0533346 -0.0533346,0.0533346l-0.485201 0c-0.0294528,0 -0.0533346,-0.0238819 -0.0533346,-0.0533346l0 -0.485197c0,-0.0294528 0.0238819,-0.0533346 0.0533346,-0.0533346l0.485201 0c0.0294528,0 0.0533346,0.0238819 0.0533346,0.0533346z"/><path class="fil0 str0" d="M2.5397 4.12348l1.74718 0c-0.0817835,-0.191031 -0.182807,-0.330949 -0.31852,-0.448713 -0.140744,-0.122134 -0.32039,-0.222272 -0.555024,-0.331354 -0.235835,0.109638 -0.416075,0.210205 -0.556996,0.333039 -0.134807,0.117512 -0.23528,0.257012 -0.316638,0.447028z"/><polygon class="fil3 str0" points="1.76259,4.37402 1.76259,3.99549 1.38406,3.99549 1.38406,4.37402 "/><polygon class="fil3 str0" points="5.06407,3.99549 5.06407,4.37402 5.4426,4.37402 5.4426,3.99549 "/><polygon class="fil3 str0" points="5.4426,4.95549 5.06407,4.95549 5.06407,5.33402 5.4426,5.33402 "/><polygon class="fil3 str0" points="1.76259,5.33402 1.76259,4.95549 1.38406,4.95549 1.38406,5.33402 "/><path class="fil3 str0" d="M2.90434 4.87452l0 0.911311 1.01798 0 0 -0.911311c-0.0474213,-0.127378 -0.106106,-0.217827 -0.187047,-0.292217 -0.0806142,-0.0740866 -0.184642,-0.134012 -0.321941,-0.199106 -0.137299,0.0650945 -0.241331,0.12502 -0.321941,0.199106 -0.0809409,0.0743898 -0.139626,0.164839 -0.187047,0.292217z"/><polygon class="fil0 str0" points="5.33002,2.65776 5.59669,2.65776 5.59669,2.29225 5.33002,2.29225 "/><polygon class="fil0 str0" points="5.59669,2.95501 5.33002,2.95501 5.33002,3.43701 5.59669,3.43701 "/><polygon class="fil0 str0" points="1.49664,2.65776 1.49664,2.29225 1.22997,2.29225 1.22997,2.65776 "/><polygon class="fil0 str0" points="1.49664,2.95501 1.22997,2.95501 1.22997,3.43701 1.49664,3.43701 "/><polygon class="fil2 str0" points="1.17664,2.84834 1.54997,2.84834 1.61039,2.84834 1.63974,2.76443 1.54997,2.76443 1.17664,2.76443 1.08687,2.76443 1.11622,2.84834 "/><path class="fil2 str0" d="M1.17664 2.18558l0.373335 0 0.0604173 0 0.0293543 -0.0839055 -0.0946339 0c-0.000401575,3.93701e-006 -0.00080315,3.93701e-006 -0.00120472,0l-0.36185 0 -0.095185 0 0.0293543 0.0839055 0.0604134 0z"/><path class="fil2 str0" d="M5.18691 2.10168l0.0293543 0.0839055 0.0604173 0 0.373335 0 0.0604134 0 0.0293543 -0.0839055 -0.095185 0 -0.36185 0c-0.000401575,3.93701e-006 -0.00080315,3.93701e-006 -0.00120472,0l-0.0946339 0z"/><polygon class="fil2 str0" points="5.65002,2.76443 5.27669,2.76443 5.18691,2.76443 5.21627,2.84834 5.27669,2.84834 5.65002,2.84834 5.71043,2.84834 5.73979,2.76443 "/></g><rect class="fil4" height="6.82666" width="6.82666"/></svg>